<svg xmlns="http://www.w3.org/2000/svg" viewBox="0 10 650 230">
    <defs>
        <style type="text/css">
            @import url('https://fonts.googleapis.com/css2?family=Inter:wght@400;500;600;700;800&amp;display=swap');
        </style>
    </defs>
    <path d="M 44.8 215 L 20 215 L 20 85 L 45 85 L 100 163.555 L 171.809 61.166 L 152.4 47.598 L 205 27.937 L 205 85 L 185.696 71.085 L 100 193.507 L 45 115 L 44.8 215 Z" style="fill: #2563eb; stroke: #2563eb; stroke-width: 3;"></path>
    <path d="M 160.7 215 L 185.7 215 L 185.7 115.661 L 160.7 151.176 L 160.7 215 Z" style="fill: #2563eb; stroke: #2563eb; stroke-width: 3;"></path>
    <polygon points="100.074 125.197 123 95 77 95"></polygon>
    <path fill-rule="evenodd" d="M 99.674 59.573 C 85.612 59.573 74.674 70.511 74.674 84.573 C 74.674 98.635 85.612 109.573 99.674 125.197 C 113.736 109.573 124.674 98.635 124.674 84.573 C 124.674 70.511 113.736 59.573 99.674 59.573 Z M 110.611 81.448 C 110.611 73.028 101.497 67.766 94.205 71.975 C 90.821 73.93 88.737 77.54 88.737 81.448 C 88.737 89.867 97.851 95.129 105.142 90.92 C 108.527 88.966 110.611 85.355 110.611 81.448 Z" style="paint-order: stroke; fill: #e67e4b;"></path>
    <text x="200" y="215" font-family="Inter, sans-serif" font-size="160" font-weight="bold">
        <tspan fill="#2563eb">ap</tspan><tspan fill="#e67e4b">Lift</tspan>
    </text>
    <circle cx="506" cy="107" r="15" fill="#4ADE80"/>
</svg>